<?xml version="1.0" encoding="UTF-8"?>
<svg id="Layer_2" data-name="Layer 2" xmlns="http://www.w3.org/2000/svg" viewBox="0 0 369.39 351.12">
  <defs>
    <style>
      .cls-1, .cls-2, .cls-3 {
        stroke-width: 0px;
      }

      .cls-1, .cls-4 {
        fill: #000;
      }

      .cls-5 {
        fill: none;
        stroke: #000;
        stroke-miterlimit: 10;
      }

      .cls-2 {
        fill: #ccc;
      }

      .cls-3 {
        fill: #fff;
      }

      .cls-4 {
        font-family: BradleyHandITCTT-Bold, 'Bradley Hand';
        font-size: 48px;
        font-weight: 700;
      }
    </style>
  </defs>
  <g id="Layer_1-2" data-name="Layer 1">
    <path class="cls-1" d="M228.48,96.12c8.93.55,17.77-1.6,26.7-1.15,1.93.1,1.92-2.9,0-3-8.93-.45-17.77,1.7-26.7,1.15-1.93-.12-1.92,2.88,0,3h0Z"/>
    <path class="cls-2" d="M180.21,98.3c4.11.08,8.23.14,12.33-.11s8.02-.97,12.03-1.5c8.16-1.07,16.26-.01,24.37.92,2.33.27,4.65.52,6.99.69,1.46.11,4.57.74,4.88-1.43.12-.84-.2-1.56-1.05-1.85-3.62-1.2-7.41-1.79-11.22-1.77-1.93.01-1.93,3.01,0,3,3.57-.02,7.04.54,10.42,1.66l-1.05-1.85c.86-.5.93-.71.18-.63-.32-.02-.64-.03-.97-.05-.64-.04-1.29-.09-1.93-.14-1.29-.1-2.57-.23-3.86-.37-2.41-.26-4.82-.56-7.22-.83-4.79-.54-9.61-.99-14.44-.8s-9.65,1.26-14.5,1.73-9.99.42-14.98.32c-1.93-.04-1.93,2.96,0,3h0Z"/>
    <g>
      <path class="cls-2" d="M151.82,95.02c65.8-1.2,131.58-3.77,197.27-7.7.3-6.49.6-12.98.9-19.47-66.76,0-133.53,2.2-200.15,6.62-.02,5.76-.03,11.52-.05,17.29"/>
      <path class="cls-1" d="M151.82,96.52c25.76-.47,51.51-1.15,77.25-2.04,25.58-.88,51.15-1.97,76.71-3.27,14.44-.73,28.88-1.53,43.31-2.39.84-.05,1.46-.65,1.5-1.5.3-6.49.6-12.98.9-19.47.04-.81-.72-1.5-1.5-1.5-26.07,0-52.15.33-78.22,1-26.07.67-52.12,1.68-78.16,3.03-14.6.76-29.19,1.62-43.77,2.58-.81.05-1.5.64-1.5,1.5-.02,5.76-.03,11.52-.05,17.29,0,1.93,2.99,1.93,3,0,.02-5.76.03-11.52.05-17.29l-1.5,1.5c26.02-1.72,52.06-3.11,78.11-4.17s52.12-1.76,78.19-2.14c14.61-.21,29.23-.31,43.84-.31l-1.5-1.5c-.3,6.49-.6,12.98-.9,19.47l1.5-1.5c-25.71,1.54-51.44,2.87-77.17,3.99s-51.15,2.02-76.73,2.72c-14.45.4-28.91.72-43.36.99-1.93.04-1.93,3.04,0,3h0Z"/>
    </g>
    <g>
      <path class="cls-2" d="M178.97,97.75c1.82,52.92,3.64,105.84,5.46,158.76.36,10.34.84,21.16,6.03,30.11,4.13,7.13,10.99,12.44,18.56,15.71,11.28,4.88,23.89,5.45,36.17,5.83,17.7.55,35.4.86,53.11,1.18,7.55.13,15.57.14,22-3.81,10.5-6.47,12.66-20.55,13.75-32.84,5.45-61.17,10.89-122.97,2.51-183.82"/>
      <path class="cls-1" d="M177.47,97.75c.66,19.3,1.33,38.61,1.99,57.91s1.33,38.78,2,58.16c.33,9.65.66,19.3,1,28.96.31,8.96.23,18.04,1.34,26.95,1.01,8.09,3.37,15.89,8.61,22.28,4.92,5.98,11.7,10.19,18.92,12.84,8.22,3.02,17.05,4.01,25.75,4.48,9.31.5,18.65.64,27.97.85,9.6.22,19.19.4,28.79.57,8.2.14,16.96.82,24.65-2.59,13.4-5.94,15.86-22.19,17.04-35.13,1.72-18.99,3.38-37.98,4.66-57.01s2.15-37.97,2.2-56.98-.71-37.92-2.7-56.78c-.49-4.61-1.05-9.21-1.68-13.8-.11-.81-1.14-1.23-1.85-1.05-.87.23-1.16,1.05-1.05,1.85,2.52,18.41,3.78,36.98,4.15,55.56s-.14,37.34-1.15,55.97-2.51,37.17-4.13,55.72c-.71,8.2-1.13,16.5-2.42,24.63-1.01,6.38-2.68,13.07-6.71,18.27-4.76,6.15-12.09,8.1-19.56,8.39-4.31.17-8.64,0-12.95-.08-4.63-.08-9.27-.17-13.9-.26-9.43-.18-18.86-.39-28.29-.66-8.72-.25-17.52-.35-26.14-1.79-7.92-1.32-15.69-3.83-22.31-8.48s-10.99-10.83-13.2-18.36c-2.34-7.98-2.4-16.41-2.69-24.66l-.98-28.46c-.65-18.89-1.3-37.78-1.95-56.67s-1.3-37.78-1.95-56.67c-.16-4.66-.32-9.32-.48-13.98-.07-1.93-3.07-1.93-3,0h0Z"/>
    </g>
    <path class="cls-1" d="M220.16,135.75c.14,13.27.29,26.53.43,39.8.02,1.95,2.87,1.91,3,0,.86-12.58,1.06-25.2.59-37.79-.07-1.92-3.07-1.93-3,0,.47,12.6.28,25.22-.59,37.79h3c-.14-13.27-.29-26.53-.43-39.8-.02-1.93-3.02-1.93-3,0h0Z"/>
    <path class="cls-1" d="M267.3,135.75c-.01,14.76-.02,29.51-.04,44.27,0,1.93,2.96,1.93,3,0,.31-13.77.1-27.54-.63-41.29-.1-1.92-3.1-1.93-3,0,.73,13.75.93,27.52.63,41.29h3c.01-14.76.02-29.51.04-44.27,0-1.93-3-1.93-3,0h0Z"/>
    <g>
      <path class="cls-3" d="M238.08,227.77l-1.04,21.82c-.03.57-.03,1.21.36,1.63.45.48,1.21.45,1.87.37,11.94-1.3,23.88-2.59,35.82-3.89-1.26-9.59-1.67-19.29-1.22-28.95"/>
      <path class="cls-1" d="M236.58,227.77l-.62,12.9-.31,6.45c-.08,1.6-.59,3.87.68,5.17s3.31.77,4.89.6c2.13-.23,4.25-.46,6.38-.69,4.33-.47,8.67-.94,13-1.41,4.82-.52,9.65-1.05,14.47-1.57.72-.08,1.61-.63,1.5-1.5-1.25-9.6-1.66-19.28-1.22-28.95.09-1.93-2.91-1.93-3,0-.43,9.67-.03,19.35,1.22,28.95l1.5-1.5c-9.98,1.08-19.95,2.17-29.93,3.25-1.31.14-2.62.28-3.93.43-.39.04-2.56.48-2.69.35-.19-.2.03-1.38.04-1.63l.09-1.98.17-3.47.74-15.38c.09-1.93-2.91-1.93-3,0h0Z"/>
    </g>
    <path class="cls-1" d="M257.29,248.75v-14c0-1.93-3-1.93-3,0v14c0,1.93,3,1.93,3,0h0Z"/>
    <path class="cls-1" d="M164.66,74.46c-.05,6.11-.06,12.22-.02,18.33.01,1.93,3.01,1.93,3,0-.04-6.11-.03-12.22.02-18.33.02-1.93-2.98-1.93-3,0h0Z"/>
    <path class="cls-1" d="M176.24,73.46c-.01,6.54-.03,13.08-.04,19.62,0,1.93,3,1.93,3,0,.01-6.54.03-13.08.04-19.62,0-1.93-3-1.93-3,0h0Z"/>
    <path class="cls-1" d="M188.96,72.6v19.33c0,1.93,3,1.93,3,0v-19.33c0-1.93-3-1.93-3,0h0Z"/>
    <path class="cls-1" d="M208.05,71.6c-.04,7.06-.08,14.13-.13,21.19-.01,1.93,2.99,1.93,3,0,.04-7.06.08-14.13.13-21.19.01-1.93-2.99-1.93-3,0h0Z"/>
    <path class="cls-1" d="M224.56,70.74l.17,21.48c.02,1.93,3.02,1.93,3,0l-.17-21.48c-.02-1.93-3.02-1.93-3,0h0Z"/>
    <path class="cls-1" d="M243.8,70.02c0,7.21,0,14.41,0,21.62,0,1.93,3,1.93,3,0,0-7.21,0-14.41,0-21.62,0-1.93-3-1.93-3,0h0Z"/>
    <path class="cls-1" d="M265.16,69.88c-.11,6.97-.03,13.94.24,20.91.07,1.92,3.07,1.93,3,0-.27-6.97-.34-13.94-.24-20.91.03-1.93-2.97-1.93-3,0h0Z"/>
    <path class="cls-1" d="M284.49,70.02c-.08,6.49-.06,12.98.06,19.47.04,1.93,3.04,1.93,3,0-.12-6.49-.14-12.98-.06-19.47.02-1.93-2.98-1.93-3,0h0Z"/>
    <path class="cls-1" d="M307.02,69.03c.3,6.39.42,12.79.36,19.18-.02,1.93,2.98,1.93,3,0,.06-6.4-.06-12.79-.36-19.18-.09-1.92-3.09-1.93-3,0h0Z"/>
    <path class="cls-1" d="M325.42,69.74c0,5.87,0,11.74,0,17.61,0,1.93,3,1.93,3,0,0-5.87,0-11.74,0-17.61,0-1.93-3-1.93-3,0h0Z"/>
    <path class="cls-1" d="M154.24,93.46c-1.34-.11-2.65.34-3.98.28l.4.05h-.05c.12.04.24.09.36.14l-.04-.03.54.54-.03-.06.15.36c-.04-.19-.06-.39-.09-.59l.05.4c-.14-1.08-.23-2.16-.27-3.25-.02-.78-.67-1.54-1.5-1.5s-1.53.66-1.5,1.5c.02.73.07,1.47.14,2.2.05.48.11.97.18,1.45.02.17.04.35.08.52.1.51.49.92.96,1.12s.96.15,1.44.11c.35-.03.7-.08,1.05-.12.71-.09,1.42-.18,2.13-.12.36.03.81-.19,1.06-.44s.46-.69.44-1.06c-.04-.87-.66-1.43-1.5-1.5h0Z"/>
    <path class="cls-1" d="M180.56,100.01c.05-1.33-.06-2.65-.26-3.96-.05-.35-.4-.73-.69-.9-.32-.19-.8-.27-1.16-.15s-.71.34-.9.69l-.15.36c-.07.27-.07.53,0,.8.02.12.03.23.05.35l-.05-.4c.14,1.07.19,2.14.15,3.21-.03.78.71,1.54,1.5,1.5.84-.04,1.47-.66,1.5-1.5h0Z"/>
    <path class="cls-1" d="M232.99,309.67c.15,9.26.12,18.52-.1,27.78-.03,1.16-.06,2.31-.09,3.47-.03.84.25,2.18-.65,2.51-2,.74-4.41.96-6.52,1.3-4.49.74-9.02,1.15-13.56,1.29-1.93.06-1.93,3.06,0,3,4.97-.15,9.93-.64,14.83-1.48,1.27-.22,2.54-.46,3.8-.72,1.07-.22,2.29-.36,3.27-.89,2.02-1.1,1.78-3.53,1.84-5.51.3-10.25.36-20.5.18-30.75-.03-1.93-3.03-1.93-3,0h0Z"/>
    <path class="cls-1" d="M288.14,310.39c0,8.98,0,17.97,0,26.95v6.49c0,1.76-.4,4.11,1.04,5.44,1.36,1.25,3.91.9,5.6.97,2.22.09,4.44.18,6.65.27,5.01.2,10.02.41,15.03.61,1.93.08,1.93-2.92,0-3-5.26-.21-10.51-.43-15.77-.64-2.46-.1-4.93-.2-7.39-.3-.45-.02-1.46.14-1.85-.08-.28.05-.38-.08-.31-.39,0-.29,0-.59,0-.88,0-1.33,0-2.66,0-3.99,0-10.48,0-20.96,0-31.44,0-1.93-3-1.93-3,0h0Z"/>
    <path class="cls-1" d="M341.24,201.57c9.27-11.03,18.54-22.05,27.77-33.1,1.23-1.47-.88-3.61-2.12-2.12-9.23,11.05-18.51,22.08-27.77,33.1-1.23,1.47.88,3.6,2.12,2.12h0Z"/>
    <path class="cls-1" d="M181.93,201.37c-1.95,0-3.63-.94-5.29-1.87s-3.27-1.88-4.87-2.88c-3.14-1.95-6.2-4.04-9.16-6.26-5.99-4.49-11.56-9.54-16.67-15.02-1.32-1.41-3.44.71-2.12,2.12,5.39,5.77,11.29,11.03,17.63,15.75,3.14,2.34,6.39,4.53,9.74,6.57s6.83,4.61,10.74,4.59c1.93,0,1.93-3.01,0-3h0Z"/>
    <path class="cls-1" d="M234.09,68.43v-2.89c0-.48,0-.96,0-1.45,0-.32.14-.94,0-1.21.06-.43-.11-.37-.51.16h.3c.27.19,1.05.08,1.41.1.94.04,1.87.06,2.81.05,3.53-.02,7.05-.36,10.55-.76,7.07-.8,14.17-1.81,21.3-1.02l-1.5-1.5c0,2.34-.15,4.66-.44,6.98-.23,1.91,2.77,1.9,3,0,.28-2.32.43-4.64.44-6.98,0-.88-.69-1.41-1.5-1.5-7.99-.88-15.94.51-23.87,1.3-3.9.39-7.8.61-11.72.37-1.63-.1-3.09.39-3.24,2.25-.16,2,0,4.08,0,6.08s3,1.93,3,0h0Z"/>
    <path class="cls-2" d="M258.74,220.51c-4.68.73-9.45,1.76-14.21,1.4-.81-.06-1.5.73-1.5,1.5,0,.86.69,1.44,1.5,1.5,5.02.37,10.07-.74,15.01-1.51.8-.12,1.24-1.13,1.05-1.85-.23-.85-1.04-1.17-1.85-1.05h0Z"/>
    <path class="cls-2" d="M239.79,225.74c2.22.97,4.85.97,7.25,1.03,2.52.07,5.03-.06,7.52-.4,4.84-.67,9.54-2.29,13.49-5.22,1.23-.91.56-3.44-1.16-2.74-4.08,1.66-8.17,3.32-12.38,4.64s-8.51,2.34-12.78,1.11c-1.86-.53-2.65,2.36-.8,2.89,4.47,1.29,9.1.47,13.47-.84s8.91-3.14,13.28-4.91l-1.16-2.74c-3.54,2.63-7.64,4.12-11.97,4.8-2.15.34-4.34.45-6.51.43-1.09,0-2.18-.05-3.26-.13s-2.44-.06-3.49-.51c-1.75-.76-3.28,1.82-1.51,2.59h0Z"/>
    <path class="cls-2" d="M256.37,224.87c-1.19,0-2.38-.09-3.56-.24l.4.05c-.48-.06-.96-.14-1.43-.23-.4-.07-.79-.06-1.16.15-.31.18-.61.54-.69.9-.17.74.22,1.69,1.05,1.85,1.78.33,3.58.52,5.39.53.78,0,1.54-.69,1.5-1.5s-.66-1.5-1.5-1.5h0Z"/>
    <path class="cls-1" d="M195.06,188.81c10.67,17.84,24.46,36.85,46.36,40.71,10.16,1.79,20.18-.58,28.49-6.69s14.26-14.29,19.63-22.72c6.6-10.36,12.03-21.89,12.44-34.36.06-1.93-2.94-1.93-3,0-.34,10.52-4.55,20.37-9.85,29.31-4.94,8.32-10.64,16.6-17.99,22.98-7.33,6.36-16.34,9.87-26.1,8.97s-19.15-5.8-26.48-12.35c-8.63-7.71-15-17.5-20.9-27.35-.99-1.66-3.58-.15-2.59,1.51h0Z"/>
    <text class="cls-4" transform="translate(23.16 43.47)"><tspan x="0" y="0">it’s just trash</tspan></text>
    <path class="cls-5" d="M318.29,41.25c-7.45,18.23-78.31,15.78-155,13-11.61-.42-30.46-1.22-35,8-7.01,14.23,24.13,44.04,23,45-1.18,1-14.77-18.78-39-32-24.87-13.57-51-15-51-15-19.26-1.06-27.36,3.65-41-3-3.75-1.83-15.85-7.72-19-20C-1.51,26.34,3.48,14.85,10.29,8.25,19.48-.64,31.28-.07,62.29,1.25c0,0,16.18.69,74,3,4.52.18,22.68.79,59,2,19.94.67,29.91,1,30,1,49.23.61,60.86-5.27,75,4,10.01,6.56,21.68,20.99,18,30Z"/>
  </g>
</svg>